<svg xmlns="http://www.w3.org/2000/svg" xmlns:xlink="http://www.w3.org/1999/xlink" width="1880" height="653" viewBox="0 0 1880 653" version="1.1">
    <title>swyftx-logo</title>
    <g id="swyftx-logo" stroke="none" stroke-width="1" fill="none" fill-rule="evenodd">
        <path d="M1617.2,654.241145 C1617.4,653.741145 1623,642.541145 1629.8,629.141145 C1659.1,571.141145 1679,520.541145 1695.5,461.841145 C1706.8,421.741145 1716,371.141145 1716,348.741145 C1716,341.341145 1715.4,338.141145 1712.4,328.841145 C1705.5,307.441145 1695.1,291.141145 1683.3,283.341145 C1676.2,278.641145 1666,274.941145 1650.9,271.541145 C1626.7,266.241145 1618.2,265.441145 1581,265.441145 C1544.8,265.441145 1540.9,265.741145 1500.2,271.541145 C1490.7,272.841145 1481.7,273.941145 1480.2,273.941145 L1477.5,273.841145 L1480.5,271.341145 C1489.4,264.041145 1524.4,250.041145 1545.5,245.441145 C1554.2,243.541145 1557.3,241.941145 1552.3,241.941145 C1547.5,241.941145 1537.4,238.441145 1527.5,233.341145 C1517.8,228.441145 1498.7,216.041145 1493,211.041145 C1489.7,208.141145 1489.7,207.941145 1492,208.441145 C1500.8,210.141145 1549.6,215.341145 1578.5,217.541145 C1603.8,219.441145 1646.2,219.741145 1657.7,218.041145 C1667.6,216.641145 1676,213.841145 1677.4,211.641145 C1679.8,207.841145 1673.2,198.541145 1643.8,164.241145 C1632.1,150.641145 1617.8,133.441145 1612,126.041145 C1598.2,108.441145 1580.7,87.2411448 1559,61.9411448 C1520.8,17.3411448 1508,1.54114475 1509.3,0.341144751 C1510.5,-0.858855249 1537.8,2.04114475 1548.9,4.54114475 C1587.3,13.1411448 1620.3,31.6411448 1663.5,68.9411448 C1669,73.6411448 1680.3,83.1411448 1688.5,89.9411448 C1711.2,108.741145 1727.8,123.941145 1746.1,142.541145 C1775.3,172.341145 1793.2,197.541145 1802,221.241145 C1803.2,224.441145 1804.7,227.241145 1805.3,227.341145 C1806,227.541145 1810.6,228.241145 1815.5,228.841145 C1832.2,231.041145 1854.5,240.041145 1869.5,250.741145 C1873.4,253.441145 1877.3,257.041145 1878.2,258.741145 L1880,261.741145 L1875.5,267.741145 C1864.9,281.941145 1849.2,289.241145 1827,290.541145 C1821.8,290.841145 1816.9,291.241145 1816.3,291.441145 C1815.4,291.741145 1816.2,293.841145 1818.6,297.941145 C1827.1,312.441145 1831.3,326.841145 1831.4,341.441145 C1831.4,350.241145 1830.9,353.141145 1827.2,366.341145 C1811.5,421.041145 1785.6,476.741145 1754,523.941145 C1731.9,556.941145 1708.7,584.241145 1678,613.141145 C1658.1,631.941145 1633.9,650.741145 1626,653.641145 C1622.1,654.941145 1616.6,655.341145 1617.2,654.241145 Z" id="Path" fill="#ffffff" fill-rule="nonzero" transform="translate(1678.750000, 327.470572) scale(-1, 1) rotate(-180.000000) translate(-1678.750000, -327.470572) "/>
        <path d="M1001.5,547.555 C962.2,541.455 937.3,517.155 930.5,478.155 C929.6,473.155 928.7,461.555 928.4,452.355 L927.9,435.655 L911.2,435.355 L894.5,435.055 L891.3,431.955 L888,428.755 L888,411.155 L888,393.555 L891.3,390.355 L894.6,387.155 L911.3,387.155 L928,387.155 L928,278.355 L928,169.555 L931.8,165.855 L935.6,162.155 L957.6,162.155 L979.6,162.155 L982.8,165.455 L986,168.755 L986,277.955 L986,387.155 L1010.3,387.155 L1034.6,387.155 L1038.3,390.955 L1042,394.755 L1042,411.255 L1042,427.755 L1038.2,431.455 L1034.4,435.155 L1010.1,435.155 L985.7,435.155 L986.2,451.955 C986.6,465.655 987.1,469.755 988.8,474.555 C993.5,487.455 1001.1,494.055 1014.6,496.855 C1021.4,498.255 1024.3,498.355 1035,497.355 C1045.5,496.455 1047.8,496.455 1049.5,497.655 C1055.2,501.755 1054.9,500.655 1056.4,522.255 C1057.5,537.655 1057.6,542.755 1056.7,543.355 C1055,544.455 1042.5,547.055 1034,548.155 C1023.8,549.455 1012.3,549.255 1001.5,547.555 Z" id="Path" fill="#ffffff" fill-rule="nonzero" transform="translate(972.653750, 355.577500) scale(-1, 1) rotate(-180.000000) translate(-972.653750, -355.577500) "/>
        <path d="M1109.8,549.644348 L1106,546.244348 L1106,518.144348 L1106,490.044348 L1085.7,490.044348 L1065.4,490.044348 L1062.2,486.744348 L1059,483.444348 L1059,465.844348 L1059,448.244348 L1062.5,445.144348 L1066.1,442.044348 L1086,442.044348 L1105.9,442.044348 L1106.2,355.844348 C1106.6,270.144348 1106.6,269.444348 1108.8,261.544348 C1112.7,247.544348 1118.1,237.644348 1126.3,229.644348 C1134.4,221.644348 1141.1,217.944348 1152.7,214.944348 C1166,211.544348 1192.1,212.744348 1208,217.444348 L1212.5,218.744348 L1212.5,239.544348 L1212.5,260.344348 L1209,263.144348 L1205.4,266.044348 L1195.1,264.544348 C1179.1,262.144348 1171.2,264.244348 1166.5,272.144348 C1164.5,275.444348 1164.5,277.644348 1164.2,358.844348 L1164,442.044348 L1184.6,442.044348 L1205.2,442.044348 L1208.6,445.444348 L1212,448.844348 L1212,466.244348 L1212,483.644348 L1208.7,486.844348 L1205.4,490.044348 L1184.7,490.044348 L1164,490.044348 L1164,517.844348 L1164,545.644348 L1160.2,549.344348 L1156.4,553.044348 L1135,553.044348 L1113.5,553.044348 L1109.8,549.644348 Z" id="Path" fill="#ffffff" fill-rule="nonzero" transform="translate(1135.750000, 383.022174) scale(-1, 1) rotate(-180.000000) translate(-1135.750000, -383.022174) "/>
        <path d="M92,552.01988 C49.4,546.01988 17.7,520.41988 9.9,485.71988 C8.4,478.71988 8.6,461.91988 10.4,454.11988 C17.7,422.71988 44.8,404.11988 103,390.51988 C147.3,380.21988 159.6,372.41988 160.8,354.01988 C161.3,345.21988 160,340.61988 155.1,335.21988 C147,326.31988 134.9,321.71988 117.2,320.91988 C102.2,320.21988 91.3,322.11988 81.3,327.01988 C67.3,333.91988 59.9,344.31988 57.7,359.81988 L56.6,368.51988 L31.1,368.51988 L5.6,368.51988 L2.8,365.81988 C0.4,363.51988 0,362.41988 0,357.61988 C0.1,334.61988 15.6,307.71988 37.5,292.51988 C58.6,277.91988 81.5,271.51988 112.2,271.51988 C135.5,271.51988 149.5,273.91988 166.6,280.91988 C185.5,288.61988 203.6,304.41988 211,319.91988 C217,332.41988 218.4,338.91988 218.5,354.51988 C218.5,366.81988 218.2,368.81988 215.6,376.91988 C205.6,407.41988 180.2,423.91988 120.6,438.51988 C79.5,448.51988 68.5,454.61988 66.4,468.21988 C65,477.81988 68,485.71988 76,492.81988 C83.8,499.81988 95.9,503.51988 111,503.51988 C134.9,503.41988 154.7,489.81988 158.1,470.91988 C158.9,466.61988 160,464.11988 162.3,461.81988 L165.4,458.51988 L187.5,458.51988 L209.6,458.51988 L213,461.91988 C216.1,465.21988 216.3,465.81988 216.1,471.91988 C215.7,485.41988 209.3,503.11988 200.7,514.31988 C185.8,533.51988 163.5,546.41988 136.7,551.11988 C124.5,553.21988 103.8,553.61988 92,552.01988 Z" id="Path" fill="#ffffff" fill-rule="nonzero" transform="translate(109.250000, 412.259940) scale(-1, 1) rotate(-180.000000) translate(-109.250000, -412.259940) "/>
        <path d="M257.1,545.1 C255.4,543 254,540.6 254,540 C254,539.3 258,524.9 262.9,508.1 C283.9,436.2 330,276.9 330,276.3 C330,276.1 340.3,276 352.9,276 L375.8,276 L380.3,290.3 C382.8,298.1 391.2,324.8 398.9,349.5 C406.6,374.3 417,407.8 422.1,424 C427.1,440.2 431.6,454.1 432,454.9 C432.5,455.9 434.1,452.4 436.5,444.9 C440.4,432.6 447.3,411.2 468.5,345 C476,321.6 483.8,297.3 485.7,291 C487.7,284.7 489.7,278.7 490.2,277.7 C491,276.1 492.9,276 513.8,276.2 L536.4,276.5 L542.6,298 C548.3,317.6 556.3,345.3 572.9,402 C576.2,413.3 586.6,449 596,481.4 L613.1,540.3 L610.2,544.4 L607.2,548.5 L582.1,548.8 C568.3,548.9 557,548.8 557,548.4 C557,547.6 513.1,372.8 512.4,371 C512.1,370.2 510.1,374.9 508.1,381.5 C502.2,400.3 483.7,459.6 473.8,491.5 C468.9,507.5 462.8,526.9 460.4,534.8 L455.9,549 L433.2,549 L410.5,549 L401.1,518.8 C395.9,502.1 389.1,480.2 386,470 C364.9,402.5 356.8,376.3 356.3,374.5 C355.5,372 357.4,365.5 339,435.5 C330.8,466.9 320.7,505.1 316.7,520.5 L309.3,548.5 L284.8,548.8 L260.2,549 L257.1,545.1 Z" id="Path" fill="#ffffff" fill-rule="nonzero" transform="translate(433.550000, 412.500000) scale(-1, 1) rotate(-180.000000) translate(-433.550000, -412.500000) "/>
        <path d="M633.6,648.380312 L630.7,643.780312 L634.8,632.080312 C637,625.680312 642.5,610.580312 646.8,598.480312 C651.2,586.380312 662.1,556.280312 671,531.480312 C679.9,506.780312 690.8,476.580312 695.2,464.480312 C699.6,452.380312 707.4,430.580312 712.6,416.080312 L722,389.680312 L715.9,373.080312 C708.8,353.780312 705.2,346.680312 699.7,340.380312 C692.1,331.780312 679.4,327.580312 662.5,328.080312 C652.7,328.480312 652.4,328.380312 648.7,325.480312 L645,322.480312 L645,301.480312 L645,280.380312 L657.3,278.180312 C679.6,274.080312 695.6,275.680312 711.5,283.680312 C724.8,290.280312 735,299.880312 744.7,314.780312 C754.3,329.280312 754.9,331.080312 781.4,406.980312 C789.9,431.480312 807.5,482.080312 820.5,519.480312 C833.5,556.880312 848.6,600.180312 853.9,615.680312 L863.7,643.880312 L860.7,648.480312 L857.8,652.980312 L831.4,652.980312 C816.9,652.980312 805,652.880312 805,652.680312 C805,652.280312 800.4,637.380312 776.5,560.480312 C766.8,529.180312 757,497.680312 754.8,490.480312 C752.6,483.380312 750.4,476.880312 750,476.080312 C749.6,475.280312 737.8,509.080312 719.5,563.880312 L689.8,652.980312 L663.2,652.980312 L636.5,652.980312 L633.6,648.380312 Z" id="Path" fill="#ffffff" fill-rule="nonzero" transform="translate(747.200000, 464.490156) scale(-1, 1) rotate(-180.000000) translate(-747.200000, -464.490156) "/>
        <path d="M1246.4,543.7 L1243.8,538.4 L1274.5,491.9 C1291.4,466.4 1310,438.4 1315.7,429.8 L1326.1,414.1 L1283.6,350.4 L1241.1,286.6 L1243.8,281.6 L1246.5,276.5 L1274.1,276.2 L1301.7,276 L1329.3,320.7 C1344.4,345.3 1357.2,365.6 1357.8,365.8 C1358.3,365.9 1371.2,345.8 1386.5,321 L1414.3,276 L1441.6,276 L1468.8,276 L1471.5,280.7 C1472.9,283.3 1473.9,286.2 1473.7,287.1 C1473.5,287.9 1454.7,316.5 1431.9,350.6 C1409.2,384.6 1390.6,413.2 1390.6,414 C1390.6,414.8 1397.6,426.1 1406.2,439 C1414.7,451.9 1432.7,479.2 1446.1,499.5 C1459.6,519.9 1470.9,537 1471.3,537.7 C1471.7,538.4 1470.8,541.2 1469.3,543.9 L1466.5,549 L1438.6,548.7 L1410.7,548.5 L1384.1,504.7 C1361.5,467.4 1357.4,461.2 1356.3,462.6 C1355.7,463.5 1343.7,483.3 1329.8,506.6 L1304.5,548.9 L1276.7,549 L1249,549 L1246.4,543.7 Z" id="Path" fill="#ffffff" fill-rule="nonzero" transform="translate(1357.412742, 412.500000) scale(-1, 1) rotate(-180.000000) translate(-1357.412742, -412.500000) "/>
    </g>
</svg>